# xmcd
#
# Track frame offsets:
#	150
#	16025
#	39875
#
# Disc length: 795 seconds
#
# Revision: 1
# Processed by: cddbd v1.5.2PL0 Copyright (c) Steve Scherf et al.
# Submitted via: audiograbber 1.83.01
#
DISCID=11031903
DTITLE=Bandit - Zeit für mich
DYEAR=1995
DGENRE=Ballad
TTITLE0=Zeit für mich
TTITLE1=Für immer
TTITLE2=Warum immer ich (Blues für Al Bundy)
EXTD=YEAR - 1995
EXTT0=
EXTT1=
EXTT2=
PLAYORDER=
